inDegrees=no
num_controls=7
num_derivatives=13
num_iterations=105
num_multipliers=7
num_parameters=0
num_slacks=7
num_states=26
objective=4.853259
objective_accelerations=0.363672
objective_balance=0.013309
objective_effort=0.162915
objective_height=4.205098
objective_ligament=0.108264
solver_duration=1195.718939
status=Solve_Succeeded
success=true
DataType=double
version=3
OpenSimVersion=4.4-2022-07-23-0e9fedc
endheader
time	/jointset/ground_pelvis/pelvis_tilt/value	/jointset/ground_pelvis/pelvis_tx/value	/jointset/ground_pelvis/pelvis_ty/value	/jointset/hip_l/hip_flexion_l/value	/jointset/hip_l/hip_adduction_l/value	/jointset/hip_l/hip_rotation_l/value	/jointset/back/lumbar_extension/value	/jointset/patellofemoral_l/patellar_flexion_l/value	/jointset/knee_l/knee_flexion_l/value	/jointset/knee_l/knee_adduction_l/value	/jointset/knee_l/knee_rotation_l/value	/jointset/ankle_l/ankle_angle_l/value	/jointset/subtalar_l/subtalar_angle_l/value	/jointset/ground_pelvis/pelvis_tilt/speed	/jointset/ground_pelvis/pelvis_tx/speed	/jointset/ground_pelvis/pelvis_ty/speed	/jointset/hip_l/hip_flexion_l/speed	/jointset/hip_l/hip_adduction_l/speed	/jointset/hip_l/hip_rotation_l/speed	/jointset/back/lumbar_extension/speed	/jointset/patellofemoral_l/patellar_flexion_l/speed	/jointset/knee_l/knee_flexion_l/speed	/jointset/knee_l/knee_adduction_l/speed	/jointset/knee_l/knee_rotation_l/speed	/jointset/ankle_l/ankle_angle_l/speed	/jointset/subtalar_l/subtalar_angle_l/speed	/forceset/tau_hip_flexion_l	/forceset/tau_hip_adduction_l	/forceset/tau_hip_rotation_l	/forceset/tau_knee_flexion_l	/forceset/tau_ankle_angle_l	/forceset/tau_subtalar_angle_l	/forceset/tau_lumbar_extension	lambda_cid13_p0	lambda_cid13_p1	lambda_cid13_p2	lambda_cid13_p3	lambda_cid13_p4	lambda_cid13_p5	lambda_cid14_p0	/jointset/ground_pelvis/pelvis_tilt/accel	/jointset/ground_pelvis/pelvis_tx/accel	/jointset/ground_pelvis/pelvis_ty/accel	/jointset/hip_l/hip_flexion_l/accel	/jointset/hip_l/hip_adduction_l/accel	/jointset/hip_l/hip_rotation_l/accel	/jointset/back/lumbar_extension/accel	/jointset/patellofemoral_l/patellar_flexion_l/accel	/jointset/knee_l/knee_flexion_l/accel	/jointset/knee_l/knee_adduction_l/accel	/jointset/knee_l/knee_rotation_l/accel	/jointset/ankle_l/ankle_angle_l/accel	/jointset/subtalar_l/subtalar_angle_l/accel	gamma_cid13_p0	gamma_cid13_p1	gamma_cid13_p2	gamma_cid13_p3	gamma_cid13_p4	gamma_cid13_p5	gamma_cid14_p0
0	0.04670054180882668	0.1085463436886231	0.9031117862902279	0.1266917050730164	-0.3680049464635728	-0.2404575523072965	-0.2144974744115991	0.2051547269257719	0.2051547269256735	-0.1694476778497804	-0.1739012115654862	0.09024399430361882	0.08142328259658947	0	0	0	0	0	0	0	0	0	0	0	0	0	0.1154083276603882	-0.06282447969444313	-0.009558200439547632	-0.2286933094471197	0.1225876874320216	-0.0674356800434474	-0.05072812341348707	8.054324729855249	26.55838142196038	-3.008892336468532	7.806592057496453	-455.9756755338047	-64.93777845567089	-26.69003136778883	-5.046592520021146	-1.939659646774009	-0.6156301837407417	10.97603163329284	0.2126998099383815	1.700461837410511	-3.778539059116373	4.665566851102397	4.665566851102707	1.600160946244538	-0.1447008155548186	-0.7273640600821384	-0.01044110805074378	1.871798525327562e-08	1.293132650551683e-07	-3.184881491951686e-08	2.805517223523799e-09	5.261940847660302e-08	5.026903588251052e-08	2.286394763285645e-08
0.01	0.0464547456085546	0.1084508593839999	0.9030818589540156	0.1272276036448641	-0.3679938896890673	-0.2403698338775114	-0.2146889939679852	0.2053809819713688	0.2053809819719884	-0.1693688798871395	-0.1739029930279085	0.09020723314921814	0.0814230654964348	-0.04902002774228443	-0.01897437231218638	-0.005967972573420802	0.1067138010084705	0.002199191075701927	0.01743853770738041	-0.03805012455961831	0.04500603492622883	0.04500603492621771	0.01567048977262082	-0.0003599217370758817	-0.007301855815303439	-4.011523882755066e-05	0.1142156495015853	-0.0700546191447368	-0.009448129263646989	-0.2289066761802447	0.1224343227365485	-0.0608173234650095	-0.04947073676394985	8.422378238394634	23.5805117912356	-2.489506355626044	6.601135313745512	-456.1520505011291	-71.12251381325727	-26.68937647631731	-4.808825200412543	-1.857952172681601	-0.5847460697950807	10.44916883926073	0.2216862227966438	1.749786039492881	-3.780181145739165	4.381371099585306	4.381371099584877	1.537146668002043	0.01780949775769475	-0.7240337626156467	-0.0003179727445386279	1.958817820506427e-08	1.564017171801579e-07	-1.986344125118121e-08	6.289353892649269e-09	-3.221249841591704e-08	2.905346341767245e-08	3.057308275155487e-08
0.02	0.04572292567096985	0.1081693061264074	0.9029927788369385	0.1288166631274447	-0.3679612095102924	-0.2401108828100305	-0.2152534011682976	0.2060499472243112	0.2060499472242369	-0.1691360462908225	-0.1739084842361512	0.09009896595262643	0.08142254299570134	-0.09720474744738992	-0.03721379059386742	-0.0118305561728816	0.2106321822026565	0.004324680807923947	0.03424652749846371	-0.07457752877337645	0.08854204130053203	0.08854204130050858	0.03080712655450816	-0.0007419494525273772	-0.01430120844510766	-6.108011549091696e-05	0.1130229713390908	-0.07728475859557157	-0.009338058095799148	-0.2291200429145903	0.1222809580401292	-0.05419896688733223	-0.0482133501165429	8.810375208308097	20.60357286989207	-1.975321212894404	5.472654437982557	-455.9032022644505	-77.21615935208111	-26.68738825896024	-4.879530912584586	-1.792668840673725	-0.5945523889487037	10.41694767043622	0.1979595412424424	1.574352254151064	-3.473994989944333	4.371561140717487	4.371561140717555	1.493390348098018	-0.1491220112301094	-0.6668634229831396	-0.006611035618096645	2.045837115685292e-08	1.834901693051474e-07	-7.878067582845562e-09	9.773190561774739e-09	-1.170444053084371e-07	7.837890952834389e-09	3.828221787025329e-08
0.03	0.04451372819525703	0.107708595390039	0.9028454479853988	0.1314314416205979	-0.367907765270424	-0.2396873776725454	-0.2161747536837751	0.2071475082838045	0.2071475082844798	-0.1687546624488856	-0.1739185027920198	0.08992188229211925	0.08142167635744216	-0.144427245274004	-0.05484778161102295	-0.01762827832835135	0.3118511917880419	0.006340278029505741	0.0503939052578237	-0.1094070630012252	0.1307506451969638	0.1307506451969568	0.04535419358458269	-0.001235221273275854	-0.02110247106054256	-0.0001335507438995772	0.1092597551664326	-0.07390091212521185	-0.008676306790675012	-0.2252634394475217	0.1189702682310891	-0.05540442136242225	-0.04528346018487358	7.727345944362798	21.21267178797608	-1.953565832934088	5.740120030240259	-455.3829452875747	-75.24240069054312	-26.68410010077076	-4.612478640284859	-1.736676005101819	-0.5713055093736414	9.903532375495928	0.1997452957838371	1.625847538963496	-3.444545939930899	4.112573486711225	4.112573486714142	1.418080100453467	0.004545562373043814	-0.6847890464869602	-0.01078910360103888	2.184385851407012e-08	1.947628250397693e-07	1.008037263375372e-10	9.471930172914106e-09	-1.730935372278868e-07	-8.440284902868379e-09	4.259934204391622e-08
0.04	0.04283853185661747	0.1070739623889221	0.9026403552362002	0.1350442411640499	-0.3678348879616962	-0.2391042153572712	-0.2174358242017636	0.2086605680788001	0.2086605680787432	-0.1682312648933243	-0.1739326589967456	0.08967717973220193	0.08141944020746772	-0.1904045200043612	-0.07199824354356656	-0.02338293570456847	0.4102363922892932	0.00821129457748707	0.06617796310282315	-0.142521129258061	0.1716417879976806	0.1716417879977142	0.05920986941455594	-0.001569479899368966	-0.02782498830250375	-0.0003349824581829702	0.105496538994941	-0.07051706565354494	-0.00801455550389894	-0.2214068359752642	0.1156595784237282	-0.05660987583537195	-0.04235357025415966	6.662191193350325	21.82224691773143	-1.936005685283753	6.077853687901876	-454.4811446183308	-73.18495324962932	-26.67939653673221	-4.630486293332681	-1.695963023752024	-0.5859394330981391	9.850185853609601	0.1690434065224553	1.501688271278829	-3.130901395741902	4.108068921574736	4.108068921579627	1.3551121080781	-0.1173193722992217	-0.6511143482891	-0.0324032527931058	2.323997049820337e-08	2.057093818797444e-07	7.99706673945564e-09	9.092626545744482e-09	-2.285492098695412e-07	-2.461665876663022e-08	4.684652784757842e-08
0.05	0.04070932102168953	0.1062701611964004	0.9023777988340458	0.1396273865873259	-0.3677439940680765	-0.2383659553456058	-0.2190192194582779	0.2105761582283558	0.2105761582282138	-0.1675726693403656	-0.1739502694805945	0.08936552558482262	0.08141455140543415	-0.2352342238821405	-0.08868725376208299	-0.02912884697326196	0.5059189435574237	0.009946957854461686	0.08139748865387765	-0.1738905384315848	0.2112352796909433	0.2112352796908752	0.07239001084912962	-0.001928622518435678	-0.03451230360185657	-0.0006661490883874294	0.1013052890355201	-0.06936969793045659	-0.007237204221195943	-0.2174189961870018	0.1116599446451038	-0.05553077964838067	-0.03918752964535024	5.513767769029667	21.42773762979885	-1.728115729226532	6.38456895719769	-453.5436880336013	-73.16865393829163	-26.67318008384902	-4.378691377260598	-1.644157027261756	-0.5690384686408139	9.356231793136791	0.1727109505355126	1.520606560306937	-3.099853135924213	3.848835547329193	3.848835547310518	1.281619650892105	0.008383697452677637	-0.6784959741716894	-0.03701306383816134	2.255287733538005e-08	1.938446087912132e-07	1.570447150539902e-08	7.830551661397261e-09	-2.65437197627578e-07	-4.06469127478329e-08	4.654183564073382e-08
0.06	0.03813791735941168	0.1053017125004183	0.9020577590202262	0.1451531459293139	-0.3676363669092808	-0.2374777957060722	-0.2209082872981284	0.2128804525463001	0.2128804525462671	-0.1667858414763265	-0.1739707523086166	0.08898680711365038	0.08140564299795702	-0.2788430854505408	-0.1049277442356553	-0.03487961803753112	0.5987591760141351	0.01155794762114328	0.09615788873657979	-0.2036556459157275	0.249382621549346	0.2493826215491509	0.08485633187374023	-0.002143948971027848	-0.04123785303773734	-0.001138903546679125	0.09711403907959533	-0.06822233020598374	-0.006459852944701634	-0.2134311563945653	0.1076603108682358	-0.05445168345930303	-0.03602148903562363	4.381187999782518	21.03406772431375	-1.524487396900625	6.756540455413335	-452.2666653881293	-73.07449892888033	-26.66525673580042	-4.386317831456267	-1.606259074763786	-0.5869113922132305	9.281722091325999	0.1441087044641589	1.409863177608123	-2.81004105786573	3.818838954602972	3.81883895460277	1.212348026086094	-0.08855613900449644	-0.6587611755952465	-0.06072081841043222	2.177807027163225e-08	1.810193586530607e-07	2.340392434514556e-08	6.531307460958353e-09	-3.015433881273571e-07	-5.667101431292782e-08	4.604548541239418e-08
0.07000000000000001	0.03513601793922122	0.1041731390240731	0.9016800560356147	0.1515939803367158	-0.3675131480349315	-0.2364451077796305	-0.2230866029951214	0.2155597056987585	0.2155597056986449	-0.165877515329983	-0.1739935853074081	0.08854095571462622	0.08139151742022752	-0.3213385977529619	-0.1207059240520404	-0.04066879010300654	0.6889471370366784	0.01307718920307897	0.1102937287848945	-0.2317473530880259	0.2862510082664965	0.2862510082664032	0.0967173132540264	-0.002407069904644638	-0.04791730028672359	-0.00169005481714736	0.09273320874949159	-0.0665241119376563	-0.005685081509962312	-0.2098140096310303	0.1046417363832216	-0.05389574328951726	-0.03274914049855726	3.539817016445724	20.8455249070521	-1.386582680028322	6.822558789992824	-450.984132381134	-72.52345595830741	-26.65546900579251	-4.151429129482047	-1.551442098609377	-0.5761525426336572	8.818252319781697	0.1544998263166914	1.402550711973881	-2.769714487989501	3.588279230922359	3.588279230938628	1.159272436688184	0.007146389782878935	-0.6702540021538564	-0.05292049267349929	1.94947625149322e-08	1.449324187850611e-07	2.352758975752388e-08	4.197788513145791e-09	-3.185911319947501e-07	-7.141352146202077e-08	4.22235108541491e-08
